<?xml version="1.0" standalone="no"?><!DOCTYPE svg PUBLIC "-//W3C//DTD SVG 1.1//EN" "http://www.w3.org/Graphics/SVG/1.1/DTD/svg11.dtd"><svg t="1548213468186" class="icon" style="" viewBox="0 0 1024 1024" version="1.1" xmlns="http://www.w3.org/2000/svg" p-id="1130" xmlns:xlink="http://www.w3.org/1999/xlink" width="15" height="15"><defs><style type="text/css"></style></defs><path d="M719.8 475.9h-174v-174c0-20.8-16.7-37.4-37.3-37.4-20.7 0-37.3 16.7-37.3 37.4v174h-174c-20.8 0-37.4 16.7-37.4 37.3 0 20.7 16.7 37.3 37.4 37.3h174v174c0 20.8 16.7 37.4 37.3 37.4 20.7 0 37.3-16.7 37.3-37.4v-174h174c20.8 0 37.4-16.7 37.4-37.3 0-20.7-16.7-37.3-37.4-37.3z" p-id="1131" fill="#8a8a8a"></path><path d="M508.5 65.5C261.2 65.5 60.8 266 60.8 513.2s200.4 447.7 447.7 447.7 447.7-200.4 447.7-447.7S755.8 65.5 508.5 65.5z m0 833.2C295.6 898.7 123 726.1 123 513.2s172.6-385.5 385.5-385.5S894 300.3 894 513.2 721.4 898.7 508.5 898.7z" p-id="1132" fill="#8a8a8a"></path></svg>