<?xml version="1.0" standalone="no"?><!DOCTYPE svg PUBLIC "-//W3C//DTD SVG 1.1//EN" "http://www.w3.org/Graphics/SVG/1.1/DTD/svg11.dtd"><svg t="1548050900097" class="icon" style="" viewBox="0 0 1024 1024" version="1.1" xmlns="http://www.w3.org/2000/svg" p-id="5066" xmlns:xlink="http://www.w3.org/1999/xlink" width="16px" height="16px"><defs><style type="text/css"></style></defs><path d="M234.9 226.9c0-25.9 25.1-46.9 56-46.9h226.9c30.5 0 55.3 21.1 55.3 46.9v580.9h40V340.2h132.5c25.9 0 46.9 21.1 46.9 46.9v413.5h40V387.2c0-47.9-39-86.9-86.9-86.9H613v-73.4c0-23.7-10.2-45.8-28.7-62.3-17.9-15.9-41.5-24.7-66.6-24.7H290.9c-52.9 0-96 39-96 86.9v580.9h40V226.9zM145.8 841.2h734.9v40H145.8z" fill="#999999" p-id="5067"></path><path d="M286.9 354.1h124.7v40H286.9zM448.1 353.9h63.2v40h-63.2zM286.9 489.1h124.7v40H286.9zM448.1 488.9h63.2v40h-63.2zM286.9 616.6h124.7v40H286.9zM448.1 616.3h63.2v40h-63.2zM638.5 433.1h71v40h-71zM730.2 433h36v40h-36zM638.5 557.9h71v40h-71zM730.2 557.7h36v40h-36zM638.5 684.7h71v40h-71zM730.2 684.5h36v40h-36z" fill="#999999" p-id="5068"></path></svg>