<?xml version="1.0" standalone="no"?><!DOCTYPE svg PUBLIC "-//W3C//DTD SVG 1.1//EN" "http://www.w3.org/Graphics/SVG/1.1/DTD/svg11.dtd"><svg t="1548210076082" class="icon" style="" viewBox="0 0 1024 1024" version="1.1" xmlns="http://www.w3.org/2000/svg" p-id="2060" xmlns:xlink="http://www.w3.org/1999/xlink" width="20" height="20"><defs><style type="text/css"></style></defs><path d="M768 332.8c-17.92 0-32 14.08-32 32l0 430.08c0 20.48-16.64 37.12-37.12 37.12L325.12 832c-20.48 0-37.12-16.64-37.12-37.12L288 364.8c0-17.92-14.08-32-32-32s-32 14.08-32 32l0 430.08c0 55.68 45.44 101.12 101.12 101.12l374.4 0c55.68 0 101.12-45.44 101.12-101.12L800.64 364.8C800 347.52 785.92 332.8 768 332.8z" p-id="2061"></path><path d="M832 256l-192 0L640 185.6c0-32-26.24-57.6-57.6-57.6L441.6 128c-32 0-57.6 26.24-57.6 57.6l0 70.4L192 256c-17.92 0-32 14.08-32 32s14.08 32 32 32l640 0c17.92 0 32-14.08 32-32S849.92 256 832 256zM448 192l128 0 0 64L448 256 448 192z" p-id="2062"></path><path d="M448 704 448 467.2c0-17.92-14.08-32-32-32s-32 14.08-32 32l0 236.8c0 17.92 14.08 32 32 32S448 721.92 448 704z" p-id="2063"></path><path d="M640 704 640 467.2c0-17.92-14.08-32-32-32s-32 14.08-32 32l0 236.8c0 17.92 14.08 32 32 32S640 721.92 640 704z" p-id="2064"></path></svg>