<?xml version="1.0" standalone="no"?><!DOCTYPE svg PUBLIC "-//W3C//DTD SVG 1.1//EN" "http://www.w3.org/Graphics/SVG/1.1/DTD/svg11.dtd"><svg t="1548050738020" class="icon" style="" viewBox="0 0 1024 1024" version="1.1" xmlns="http://www.w3.org/2000/svg" p-id="1355" xmlns:xlink="http://www.w3.org/1999/xlink" width="16px" height="16px"><defs><style type="text/css"></style></defs><path d="M108.8 518.4c-6.4 0-13.866667-3.2-18.133333-8.533333-9.6-10.666667-8.533333-25.6 2.133333-35.2 33.066667-29.866667 102.4-100.266667 169.6-169.6 64-65.066667 123.733333-126.933333 154.666667-155.733334 49.066667-45.866667 117.333333-44.8 165.333333 0 60.8 57.6 286.933333 265.6 349.866667 322.133334 10.666667 9.6 10.666667 24.533333 2.133333 35.2-9.6 10.666667-24.533333 10.666667-35.2 2.133333-64-55.466667-291.2-263.466667-352-322.133333-28.8-27.733333-66.133333-27.733333-97.066667 0-29.866667 27.733333-92.8 91.733333-152.533333 153.6C229.333333 409.6 160 482.133333 125.866667 512c-5.333333 4.266667-10.666667 6.4-17.066667 6.4z" fill="#999999" p-id="1356"></path><path d="M512 333.866667c1.066667 0 3.2 0 5.333333 2.133333L701.866667 490.666667H322.133333l184.533334-154.666667c2.133333-1.066667 4.266667-2.133333 5.333333-2.133333m0-49.066667c-12.8 0-26.666667 4.266667-37.333333 13.866667L185.6 540.8h652.8L549.333333 297.6c-10.666667-8.533333-24.533333-12.8-37.333333-12.8z" fill="#999999" p-id="1357"></path><path d="M788.266667 589.866667v272H235.733333V589.866667h552.533334m50.133333-49.066667H185.6V874.666667c0 20.266667 17.066667 37.333333 37.333333 37.333333h578.133334c20.266667 0 37.333333-17.066667 37.333333-37.333333V540.8z" fill="#999999" p-id="1358"></path><path d="M385.066667 774.4h-84.266667c-26.666667 0-49.066667-21.333333-49.066667-49.066667v-84.266666c0-26.666667 21.333333-49.066667 49.066667-49.066667h84.266667c26.666667 0 49.066667 21.333333 49.066666 49.066667V725.333333c-1.066667 26.666667-22.4 49.066667-49.066666 49.066667z m-84.266667-50.133333H384v-82.133334h-82.133333v82.133334zM740.266667 910.933333H586.666667V745.6c0-22.4 18.133333-39.466667 39.466666-39.466667h73.6c22.4 0 39.466667 18.133333 39.466667 39.466667v165.333333z m-103.466667-50.133333h53.333333v-105.6h-53.333333v105.6z" fill="#999999" p-id="1359"></path></svg>