<?xml version="1.0" standalone="no"?><!DOCTYPE svg PUBLIC "-//W3C//DTD SVG 1.1//EN" "http://www.w3.org/Graphics/SVG/1.1/DTD/svg11.dtd"><svg t="1547799326513" class="icon" style="" viewBox="0 0 1024 1024" version="1.1" xmlns="http://www.w3.org/2000/svg" p-id="7507" xmlns:xlink="http://www.w3.org/1999/xlink" width="60px" height="65px"><defs><style type="text/css"></style></defs><path d="M329.142857 629.028571h497.371429V277.942857h-497.371429v351.085714z m169.691429-108.251428l58.514285-146.285714c0-1.462857 1.462857-2.925714 1.462858-2.925715s0-1.462857 1.462857-1.462857l1.462857-1.462857c1.462857 0 1.462857-1.462857 2.925714-1.462857h11.702857c1.462857 0 1.462857 1.462857 2.925715 1.462857l1.462857 1.462857s0 1.462857 1.462857 1.462857l2.925714 2.925715 58.514286 146.285714c2.925714 7.314286 0 16.091429-8.777143 19.017143-1.462857 1.462857-4.388571 1.462857-5.851429 1.462857-5.851429 0-11.702857-2.925714-13.165714-8.777143l-10.24-24.868571h-70.217143l-10.24 24.868571c-1.462857 5.851429-7.314286 8.777143-13.165714 8.777143-1.462857 0-2.925714 0-5.851429-1.462857-7.314286-2.925714-10.24-11.702857-7.314285-19.017143z" fill="#ffffff" p-id="7508"></path><path d="M570.514286 419.84l-23.405715 58.514286h46.811429z" fill="#ffffff" p-id="7509"></path><path d="M950.857143 0H73.142857C32.182857 0 0 32.182857 0 73.142857v877.714286c0 40.96 32.182857 73.142857 73.142857 73.142857h877.714286c40.96 0 73.142857-32.182857 73.142857-73.142857V73.142857c0-40.96-32.182857-73.142857-73.142857-73.142857zM197.485714 746.057143V336.457143c0-8.777143 5.851429-14.628571 14.628572-14.628572h49.737143c8.777143 0 14.628571 5.851429 14.628571 14.628572s-5.851429 14.628571-14.628571 14.628571h-35.108572v380.342857h73.142857c8.777143 0 14.628571 5.851429 14.628572 14.628572s-5.851429 14.628571-14.628572 14.628571h-87.771428c-8.777143 0-14.628571-5.851429-14.628572-14.628571z m585.142857 0c0 8.777143-5.851429 14.628571-14.628571 14.628571h-351.085714l-106.788572 98.011429c-2.925714 2.925714-7.314286 4.388571-10.24 4.388571-4.388571 0-7.314286-1.462857-10.24-4.388571-5.851429-5.851429-4.388571-14.628571 1.462857-20.48l111.177143-102.4c2.925714-2.925714 5.851429-4.388571 10.24-4.388572h342.308572v-39.497142c0-8.777143 5.851429-14.628571 14.628571-14.628572s14.628571 5.851429 14.628572 14.628572V746.057143z m73.142858-102.4c0 8.777143-5.851429 14.628571-14.628572 14.628571h-526.628571c-8.777143 0-14.628571-5.851429-14.628572-14.628571V263.314286c0-8.777143 5.851429-14.628571 14.628572-14.628572h526.628571c8.777143 0 14.628571 5.851429 14.628572 14.628572v380.342857z" fill="#ffffff" p-id="7510"></path></svg>