<?xml version="1.0" standalone="no"?><!DOCTYPE svg PUBLIC "-//W3C//DTD SVG 1.1//EN" "http://www.w3.org/Graphics/SVG/1.1/DTD/svg11.dtd"><svg t="1548058179970" class="icon" style="" viewBox="0 0 1025 1024" version="1.1" xmlns="http://www.w3.org/2000/svg" p-id="5475" xmlns:xlink="http://www.w3.org/1999/xlink" width="32.03125" height="32"><defs><style type="text/css"></style></defs><path d="M656.413875 448.821637 376.618329 448.821637 565.505877 481.309305 367.589733 647.388916 665.442471 647.388916 493.229817 599.601378Z" p-id="5476" fill="#efb336"></path><path d="M511.999985 0C229.232496 0 0 229.232496 0 512.003623c0 282.767489 229.232496 511.996347 511.999985 511.996347 282.771127 0 512.00726-229.228858 512.00726-511.996347C1024.007246 229.232496 794.771112 0 511.999985 0zM710.570902 755.699334c0 18.04628 0 18.04628-18.053555 18.04628l-173.671344-110.438431-169.306188 110.438431c-18.049917 0-16.678531 0-16.678531-11.840484l16.678531-204.780351L215.434968 433.278046l0-2.979219 205.53334 0 91.035315-180.048108 17.042294 0 91.268123 180.048108 181.685041 0c6.573196 0 6.573196-1.82609 6.573196 4.747106l-134.10121 122.078845L710.570902 755.699334z" p-id="5477" fill="#efb336"></path></svg>