<?xml version="1.0" standalone="no"?><!DOCTYPE svg PUBLIC "-//W3C//DTD SVG 1.1//EN" "http://www.w3.org/Graphics/SVG/1.1/DTD/svg11.dtd"><svg t="1547892558869" class="icon" style="fill:#888888;" viewBox="0 0 1024 1024" version="1.1" xmlns="http://www.w3.org/2000/svg" p-id="2092" xmlns:xlink="http://www.w3.org/1999/xlink" width="30" height="30"><defs><style type="text/css"></style></defs><path d="M936.444898 886.348943 773.85894 723.762985c62.556755-72.204485 96.698343-163.441443 96.698343-259.928984 0-106.210997-41.361013-206.064192-116.463502-281.167704-75.102489-75.101465-174.956707-116.462478-281.168728-116.462478-106.210997 0-206.064192 41.361013-281.165658 116.463502C116.656907 257.769808 75.296917 357.624027 75.296917 463.834001s41.361013 206.064192 116.463502 281.167704c75.101465 75.102489 174.955684 116.463502 281.165658 116.463502 87.748507 0 171.141822-28.255531 239.839437-80.420611l164.492378 164.492378c8.172123 8.172123 18.883069 12.259208 29.594015 12.259208s21.421892-4.087085 29.594015-12.259208C952.789145 929.191704 952.789145 902.69319 936.444898 886.348943zM159.000294 463.834001c0-173.099407 140.826376-313.925782 313.924759-313.925782 173.099407 0 313.926806 140.826376 313.926806 313.925782s-140.827399 313.924759-313.926806 313.924759C299.82667 777.759783 159.000294 636.933407 159.000294 463.834001z" p-id="2093"></path></svg>