<?xml version="1.0" standalone="no"?><!DOCTYPE svg PUBLIC "-//W3C//DTD SVG 1.1//EN" "http://www.w3.org/Graphics/SVG/1.1/DTD/svg11.dtd"><svg t="1548213480966" class="icon" style="" viewBox="0 0 1024 1024" version="1.1" xmlns="http://www.w3.org/2000/svg" p-id="3046" xmlns:xlink="http://www.w3.org/1999/xlink" width="15" height="15"><defs><style type="text/css"></style></defs><path d="M512.233 63.14c-246.762 0-446.709 199.947-446.709 446.709 0 246.703 199.947 446.709 446.71 446.709s446.71-199.947 446.71-446.709S758.935 63.14 512.233 63.14z m0 833.798c-213.825 0-387.148-173.383-387.148-387.148 0-213.825 173.323-387.149 387.148-387.149S899.382 295.965 899.382 509.79c-0.06 213.826-173.324 387.148-387.149 387.148z" fill="#8a8a8a" p-id="3047"></path><path d="M734.102 478.883H289.36c-18.365 0-33.253 14.888-33.253 33.253 0 18.365 14.888 33.253 33.253 33.253h444.743c18.366 0 33.254-14.888 33.254-33.253 0-18.365-14.888-33.253-33.254-33.253z" fill="#8a8a8a" p-id="3048"></path></svg>