<?xml version="1.0" standalone="no"?><!DOCTYPE svg PUBLIC "-//W3C//DTD SVG 1.1//EN" "http://www.w3.org/Graphics/SVG/1.1/DTD/svg11.dtd"><svg t="1547799459680" class="icon" style="" viewBox="0 0 1024 1024" version="1.1" xmlns="http://www.w3.org/2000/svg" p-id="9570" xmlns:xlink="http://www.w3.org/1999/xlink" width="60px" height="65px"><defs><style type="text/css"></style></defs><path d="M666.946466 264.212544l0-88.60399c0.692778-21.090341-24.357757-44.301995-44.301995-44.301995L378.985032 131.306558c-20.420075 0-44.301995 22.334681-44.301995 44.301995l0 88.60399L201.778074 264.212544c-33.096792 0-66.452481 35.313274-66.452481 66.451458l0 110.754476 753.130849 0L888.456443 330.664002c0-32.978089-33.561373-66.451458-66.451458-66.451458L666.946466 264.212544zM600.492962 264.212544 401.135518 264.212544l0-44.301995c0-13.444197 8.761548-22.150486 22.150486-22.150486l155.055448 0c13.379729 0 22.150486 8.707312 22.150486 22.150486L600.491938 264.212544zM511.025301 573.523215c43.63173 0 45.166689-53.624315 45.166689-87.802742L445.437513 485.720474c0.74599 27.504424 0.865717 88.602967 44.301995 88.602967C489.739509 574.323441 501.896386 573.523215 511.025301 573.523215zM600.492962 485.720474c0 0 35.108612 132.904962-99.689467 132.904962-139.178853 0-99.667977-132.904962-99.667977-132.904962L135.32457 485.720474l0 310.11192c0 34.026978 29.873378 66.452481 66.452481 66.452481l620.225887 0c33.269731 0 66.451458-28.662807 66.451458-66.452481L888.454396 485.720474 600.492962 485.720474z" p-id="9571" fill="#ffffff"></path></svg>